<?xml version="1.0" encoding="utf-8"?>
<!-- Generator: Adobe Illustrator 20.0.0, SVG Export Plug-In . SVG Version: 6.00 Build 0)  -->
<svg version="1.1" id="Layer_1" xmlns="http://www.w3.org/2000/svg" xmlns:xlink="http://www.w3.org/1999/xlink" x="0px" y="0px"
	 viewBox="0 0 1024 600" style="enable-background:new 0 0 1024 600;" xml:space="preserve">
<style type="text/css">
	.st0{fill-rule:evenodd;clip-rule:evenodd;}
</style>
<g>
	<g>
		<path class="st0" d="M911.5,97.5v-11h-4v11h-11v4h11v11h4v-11h11v-4H911.5z M76,39.5c-6.9,0-12.5,5.6-12.5,12.5
			c0,6.9,5.6,12.5,12.5,12.5S88.5,58.9,88.5,52C88.5,45.1,82.9,39.5,76,39.5z M76,60.5c-4.7,0-8.5-3.8-8.5-8.5s3.8-8.5,8.5-8.5
			s8.5,3.8,8.5,8.5S80.7,60.5,76,60.5z M265.5,555.5c-2.2,0-4,1.8-4,4c0,2.2,1.8,4,4,4s4-1.8,4-4
			C269.5,557.3,267.7,555.5,265.5,555.5z M606,306.5c-6.9,0-12.5,5.6-12.5,12.5c0,6.9,5.6,12.5,12.5,12.5s12.5-5.6,12.5-12.5
			C618.5,312.1,612.9,306.5,606,306.5z M606,327.5c-4.7,0-8.5-3.8-8.5-8.5s3.8-8.5,8.5-8.5s8.5,3.8,8.5,8.5S610.7,327.5,606,327.5z
			 M495.5,517.5c-7.2,0-13,5.8-13,13c0,7.2,5.8,13,13,13c7.2,0,13-5.8,13-13C508.5,523.3,502.7,517.5,495.5,517.5z"/>
	</g>
</g>
</svg>
