<?xml version="1.0" encoding="utf-8"?>
<!-- Generator: Adobe Illustrator 20.0.0, SVG Export Plug-In . SVG Version: 6.00 Build 0)  -->
<svg version="1.1" id="Layer_1" xmlns="http://www.w3.org/2000/svg" xmlns:xlink="http://www.w3.org/1999/xlink" x="0px" y="0px"
	 viewBox="0 0 1600 900" style="enable-background:new 0 0 1600 900;" xml:space="preserve">
<style type="text/css">
	.st0{fill-rule:evenodd;clip-rule:evenodd;}
</style>
<g>
	<g>
		<path class="st0" d="M29.5,741.5c-3.9,0-7,3.1-7,7c0,3.9,3.1,7,7,7c3.9,0,7-3.1,7-7C36.5,744.6,33.4,741.5,29.5,741.5z
			 M283.5,260.5c-2.2,0-4,1.8-4,4s1.8,4,4,4c2.2,0,4-1.8,4-4S285.7,260.5,283.5,260.5z M410.5,817.5c-2.2,0-4,1.8-4,4
			c0,2.2,1.8,4,4,4c2.2,0,4-1.8,4-4C414.5,819.3,412.7,817.5,410.5,817.5z M121,128.5c-6.9,0-12.5,5.6-12.5,12.5
			c0,6.9,5.6,12.5,12.5,12.5c6.9,0,12.5-5.6,12.5-12.5C133.5,134.1,127.9,128.5,121,128.5z M121,149.5c-4.7,0-8.5-3.8-8.5-8.5
			s3.8-8.5,8.5-8.5s8.5,3.8,8.5,8.5S125.7,149.5,121,149.5z M1431,216.5c-6.9,0-12.5,5.6-12.5,12.5c0,6.9,5.6,12.5,12.5,12.5
			s12.5-5.6,12.5-12.5C1443.5,222.1,1437.9,216.5,1431,216.5z M1431,237.5c-4.7,0-8.5-3.8-8.5-8.5s3.8-8.5,8.5-8.5
			c4.7,0,8.5,3.8,8.5,8.5S1435.7,237.5,1431,237.5z M1562,64.5c-4.7,0-8.5,3.8-8.5,8.5c0,4.7,3.8,8.5,8.5,8.5c4.7,0,8.5-3.8,8.5-8.5
			C1570.5,68.3,1566.7,64.5,1562,64.5z M1161.5,203.5h-4v11h-11v4h11v11h4v-11h11v-4h-11V203.5z M737.5,476.5c-3.9,0-7,3.1-7,7
			c0,3.9,3.1,7,7,7c3.9,0,7-3.1,7-7C744.5,479.6,741.4,476.5,737.5,476.5z M698.5,809.5c-7.2,0-13,5.8-13,13c0,7.2,5.8,13,13,13
			c7.2,0,13-5.8,13-13C711.5,815.3,705.7,809.5,698.5,809.5z M541.5,153.5c-7.2,0-13,5.8-13,13c0,7.2,5.8,13,13,13
			c7.2,0,13-5.8,13-13C554.5,159.3,548.7,153.5,541.5,153.5z"/>
	</g>
</g>
</svg>
