<?xml version="1.0" encoding="utf-8"?>
<!-- Generator: Adobe Illustrator 20.0.0, SVG Export Plug-In . SVG Version: 6.00 Build 0)  -->
<svg version="1.1" id="Layer_1" xmlns="http://www.w3.org/2000/svg" xmlns:xlink="http://www.w3.org/1999/xlink" x="0px" y="0px"
	 viewBox="0 0 1920 1080" style="enable-background:new 0 0 1920 1080;" xml:space="preserve">
<style type="text/css">
	.st0{fill-rule:evenodd;clip-rule:evenodd;}
	.st1{fill:none;stroke:#000000;stroke-width:4.252;stroke-miterlimit:10;}
</style>
<g>
	<g>
		<g>
			<path class="st0" d="M1187.5,563.5c-3.9,0-7,3.1-7,7s3.1,7,7,7c3.9,0,7-3.1,7-7S1191.4,563.5,1187.5,563.5z M701.9,233.5
				c-7.2,0-13,5.8-13,13c0,7.2,5.8,13,13,13c7.2,0,13-5.8,13-13C714.9,239.3,709,233.5,701.9,233.5z M898.9,928.5
				c-7.2,0-13,5.8-13,13c0,7.2,5.8,13,13,13c7.2,0,13-5.8,13-13C911.9,934.3,906,928.5,898.9,928.5z M87.9,482.5
				c-7.2,0-13,5.8-13,13c0,7.2,5.8,13,13,13c7.2,0,13-5.8,13-13C100.9,488.3,95,482.5,87.9,482.5z M1843.4,125.5
				c-4.7,0-8.5,3.8-8.5,8.5c0,4.7,3.8,8.5,8.5,8.5s8.5-3.8,8.5-8.5C1851.9,129.3,1848.1,125.5,1843.4,125.5z M391.9,279.5
				c-2.2,0-4,1.8-4,4s1.8,4,4,4c2.2,0,4-1.8,4-4S394.1,279.5,391.9,279.5z M1444.9,142.5c-2.2,0-4,1.8-4,4c0,2.2,1.8,4,4,4
				s4-1.8,4-4C1448.9,144.3,1447.1,142.5,1444.9,142.5z M779.9,766.5c-2.2,0-4,1.8-4,4c0,2.2,1.8,4,4,4c2.2,0,4-1.8,4-4
				C783.9,768.3,782.1,766.5,779.9,766.5z M878.9,475.5c-3.9,0-7,3.1-7,7c0,3.9,3.1,7,7,7c3.9,0,7-3.1,7-7
				C885.9,478.6,882.7,475.5,878.9,475.5z M578.9,873.5c-3.9,0-7,3.1-7,7c0,3.9,3.1,7,7,7c3.9,0,7-3.1,7-7
				C585.9,876.6,582.7,873.5,578.9,873.5z M1720.9,495.5c-7.2,0-13,5.8-13,13c0,7.2,5.8,13,13,13c7.2,0,13-5.8,13-13
				C1733.9,501.3,1728,495.5,1720.9,495.5z M1321.9,259.5h-4v11h-11v4h11v11h4v-11h11v-4h-11V259.5z"/>
		</g>
	</g>
	<g>
		<g>
			<path class="st1" d="M169.4,205.5c-7.5,0-13.5,6-13.5,13.5s6,13.5,13.5,13.5c7.5,0,13.5-6,13.5-13.5S176.8,205.5,169.4,205.5z
				 M142.4,804.5c-7.5,0-13.5,6-13.5,13.5c0,7.5,6,13.5,13.5,13.5c7.5,0,13.5-6,13.5-13.5C155.9,810.5,149.8,804.5,142.4,804.5z
				 M1693.9,310.5c-7.7,0-14,6.3-14,14c0,7.7,6.3,14,14,14c7.7,0,14-6.3,14-14C1707.9,316.8,1701.6,310.5,1693.9,310.5z"/>
		</g>
	</g>
</g>
</svg>
