<?xml version="1.0" encoding="utf-8"?>
<!-- Generator: Adobe Illustrator 20.0.0, SVG Export Plug-In . SVG Version: 6.00 Build 0)  -->
<svg version="1.1" id="Layer_1" xmlns="http://www.w3.org/2000/svg" xmlns:xlink="http://www.w3.org/1999/xlink" x="0px" y="0px"
	 viewBox="0 0 1024 600" style="enable-background:new 0 0 1024 600;" xml:space="preserve">
<style type="text/css">
	.st0{fill-rule:evenodd;clip-rule:evenodd;}
</style>
<g>
	<g>
		<path class="st0" d="M399.5,530.5c-2.2,0-4,1.8-4,4c0,2.2,1.8,4,4,4c2.2,0,4-1.8,4-4C403.5,532.3,401.7,530.5,399.5,530.5z
			 M366,50.5c-6.9,0-12.5,5.6-12.5,12.5c0,6.9,5.6,12.5,12.5,12.5c6.9,0,12.5-5.6,12.5-12.5C378.5,56.1,372.9,50.5,366,50.5z
			 M366,71.5c-4.7,0-8.5-3.8-8.5-8.5s3.8-8.5,8.5-8.5s8.5,3.8,8.5,8.5S370.7,71.5,366,71.5z M93,18.5c-6.9,0-12.5,5.6-12.5,12.5
			c0,6.9,5.6,12.5,12.5,12.5c6.9,0,12.5-5.6,12.5-12.5C105.5,24.1,99.9,18.5,93,18.5z M911,90.8c-4.5,0-8.2,3.7-8.2,8.2
			c0,4.5,3.7,8.2,8.2,8.2c4.5,0,8.2-3.7,8.2-8.2C919.2,94.5,915.5,90.8,911,90.8z M650.5,8.5c-2.2,0-4,1.8-4,4c0,2.2,1.8,4,4,4
			c2.2,0,4-1.8,4-4C654.5,10.3,652.7,8.5,650.5,8.5z M795,510.5c-6.9,0-12.5,5.6-12.5,12.5c0,6.9,5.6,12.5,12.5,12.5
			s12.5-5.6,12.5-12.5C807.5,516.1,801.9,510.5,795,510.5z M795,531.5c-4.7,0-8.5-3.8-8.5-8.5s3.8-8.5,8.5-8.5s8.5,3.8,8.5,8.5
			S799.7,531.5,795,531.5z M950.5,435.5c-2.2,0-4,1.8-4,4c0,2.2,1.8,4,4,4c2.2,0,4-1.8,4-4C954.5,437.3,952.7,435.5,950.5,435.5z
			 M67,538.5c-4.1,0-7.5,3.4-7.5,7.5s3.4,7.5,7.5,7.5c4.1,0,7.5-3.4,7.5-7.5S71.1,538.5,67,538.5z"/>
	</g>
</g>
</svg>
