<?xml version="1.0" encoding="utf-8"?>
<!-- Generator: Adobe Illustrator 20.0.0, SVG Export Plug-In . SVG Version: 6.00 Build 0)  -->
<svg version="1.1" id="Layer_1" xmlns="http://www.w3.org/2000/svg" xmlns:xlink="http://www.w3.org/1999/xlink" x="0px" y="0px"
	 viewBox="0 0 1600 900" style="enable-background:new 0 0 1600 900;" xml:space="preserve">
<style type="text/css">
	.st0{fill-rule:evenodd;clip-rule:evenodd;}
</style>
<g>
	<g>
		<path class="st0" d="M499.7,138.2c-4.1,0-7.5,3.4-7.5,7.5c0,4.1,3.4,7.5,7.5,7.5c4.1,0,7.5-3.4,7.5-7.5
			C507.2,141.6,503.8,138.2,499.7,138.2z M124.7,113.2c-6.9,0-12.5,5.6-12.5,12.5c0,6.9,5.6,12.5,12.5,12.5
			c6.9,0,12.5-5.6,12.5-12.5C137.2,118.8,131.6,113.2,124.7,113.2z M124.7,134.2c-4.7,0-8.5-3.8-8.5-8.5s3.8-8.5,8.5-8.5
			s8.5,3.8,8.5,8.5S129.4,134.2,124.7,134.2z M127.2,840.3c-2.2,0-4,1.8-4,4c0,2.2,1.8,4,4,4c2.2,0,4-1.8,4-4
			C131.2,842,129.4,840.3,127.2,840.3z M1480.7,654.2c-4.1,0-7.5,3.4-7.5,7.5c0,4.1,3.4,7.5,7.5,7.5c4.1,0,7.5-3.4,7.5-7.5
			C1488.2,657.6,1484.8,654.2,1480.7,654.2z M1178.2,847.2c-2.2,0-4,1.8-4,4c0,2.2,1.8,4,4,4c2.2,0,4-1.8,4-4
			C1182.2,849,1180.4,847.2,1178.2,847.2z M1253.7,45.2c-6.9,0-12.5,5.6-12.5,12.5c0,6.9,5.6,12.5,12.5,12.5s12.5-5.6,12.5-12.5
			C1266.2,50.8,1260.6,45.2,1253.7,45.2z M1253.7,66.2c-4.7,0-8.5-3.8-8.5-8.5s3.8-8.5,8.5-8.5s8.5,3.8,8.5,8.5
			S1258.4,66.2,1253.7,66.2z M768.2,267.2c-2.2,0-4,1.8-4,4c0,2.2,1.8,4,4,4c2.2,0,4-1.8,4-4C772.2,269,770.4,267.2,768.2,267.2z
			 M539.7,748.3c-6.9,0-12.5,5.6-12.5,12.5c0,6.9,5.6,12.5,12.5,12.5c6.9,0,12.5-5.6,12.5-12.5C552.2,753.8,546.6,748.3,539.7,748.3
			z"/>
	</g>
</g>
</svg>
