<?xml version="1.0" encoding="utf-8"?>
<!-- Generator: Adobe Illustrator 20.0.0, SVG Export Plug-In . SVG Version: 6.00 Build 0)  -->
<svg version="1.1" id="Layer_1" xmlns="http://www.w3.org/2000/svg" xmlns:xlink="http://www.w3.org/1999/xlink" x="0px" y="0px"
	 viewBox="0 0 1920 1080" style="enable-background:new 0 0 1920 1080;" xml:space="preserve">
<style type="text/css">
	.st0{fill-rule:evenodd;clip-rule:evenodd;}
</style>
<g>
	<g>
		<path class="st0" d="M264.6,227c-6.9,0-12.5,5.6-12.5,12.5c0,6.9,5.6,12.5,12.5,12.5c6.9,0,12.5-5.6,12.5-12.5
			C277.1,232.6,271.5,227,264.6,227z M264.6,248c-4.7,0-8.5-3.8-8.5-8.5s3.8-8.5,8.5-8.5s8.5,3.8,8.5,8.5S269.3,248,264.6,248z
			 M292.1,931c-2.2,0-4,1.8-4,4c0,2.2,1.8,4,4,4s4-1.8,4-4C296.1,932.8,294.3,931,292.1,931z M34.1,351c-2.2,0-4,1.8-4,4
			c0,2.2,1.8,4,4,4s4-1.8,4-4C38.1,352.8,36.3,351,34.1,351z M629.6,227c-4.1,0-7.5,3.4-7.5,7.5s3.4,7.5,7.5,7.5
			c4.1,0,7.5-3.4,7.5-7.5S633.7,227,629.6,227z M167.6,744c-4.1,0-7.5,3.4-7.5,7.5s3.4,7.5,7.5,7.5c4.1,0,7.5-3.4,7.5-7.5
			S171.7,744,167.6,744z M1745.6,882c-6.9,0-12.5,5.6-12.5,12.5c0,6.9,5.6,12.5,12.5,12.5s12.5-5.6,12.5-12.5
			C1758.1,887.6,1752.5,882,1745.6,882z M1745.6,903c-4.7,0-8.5-3.8-8.5-8.5s3.8-8.5,8.5-8.5s8.5,3.8,8.5,8.5S1750.3,903,1745.6,903
			z M1787.6,292c-6.9,0-12.5,5.6-12.5,12.5c0,6.9,5.6,12.5,12.5,12.5s12.5-5.6,12.5-12.5C1800.1,297.6,1794.5,292,1787.6,292z
			 M1469.6,141c-6.9,0-12.5,5.6-12.5,12.5c0,6.9,5.6,12.5,12.5,12.5s12.5-5.6,12.5-12.5C1482.1,146.6,1476.5,141,1469.6,141z
			 M1469.6,162c-4.7,0-8.5-3.8-8.5-8.5s3.8-8.5,8.5-8.5s8.5,3.8,8.5,8.5S1474.3,162,1469.6,162z M1564.1,748c-2.2,0-4,1.8-4,4
			c0,2.2,1.8,4,4,4s4-1.8,4-4C1568.1,749.8,1566.3,748,1564.1,748z M898.1,356c-2.2,0-4,1.8-4,4c0,2.2,1.8,4,4,4c2.2,0,4-1.8,4-4
			C902.1,357.8,900.3,356,898.1,356z M669.6,837c-6.9,0-12.5,5.6-12.5,12.5c0,6.9,5.6,12.5,12.5,12.5c6.9,0,12.5-5.6,12.5-12.5
			C682.1,842.6,676.5,837,669.6,837z"/>
	</g>
</g>
</svg>
