<svg xmlns="http://www.w3.org/2000/svg" viewBox="0 0 200 37"><defs><style>.cls-1,.cls-2{fill:#0084ff;}.cls-1{fill-rule:evenodd;}.cls-3{fill:#fff;}</style></defs><title>Button</title><g id="Layer_2" data-name="Layer 2"><g id="Layer_1-2" data-name="Layer 1"><path class="cls-1" d="M7,0H193a7.1,7.1,0,0,1,7,7.16V29.84A7.1,7.1,0,0,1,193,37H7a7.1,7.1,0,0,1-7-7.16V7.16A7.1,7.1,0,0,1,7,0Z"/><ellipse class="cls-2" cx="34.31" cy="18.59" rx="9.45" ry="5.77"/><path class="cls-3" d="M31.67,7.93c-6.08,0-11,4.59-11,10.25a10,10,0,0,0,4.1,8v3.91L28.51,28a11.75,11.75,0,0,0,3.16.43c6.08,0,11-4.59,11-10.25S37.74,7.93,31.67,7.93Zm1.09,13.8-2.8-3-5.47,3,6-6.42,2.87,3,5.4-3Z"/><path class="cls-3" d="M59.29,15a2.87,2.87,0,0,0-1.73-.49,4.16,4.16,0,0,0-.84.09,2.24,2.24,0,0,0-.73.29,1.5,1.5,0,0,0-.51.53,1.66,1.66,0,0,0-.19.83,1.06,1.06,0,0,0,.28.76,2.06,2.06,0,0,0,.74.48,6.15,6.15,0,0,0,1,.31l1.19.26q.61.14,1.19.34a3.91,3.91,0,0,1,1,.52,2.48,2.48,0,0,1,.74.83,2.9,2.9,0,0,1-.08,2.64,3,3,0,0,1-.93.94,4.09,4.09,0,0,1-1.28.53,6.2,6.2,0,0,1-1.4.16,6,6,0,0,1-1.62-.21,4,4,0,0,1-1.34-.65,3.07,3.07,0,0,1-.91-1.11,3.59,3.59,0,0,1-.33-1.6h1.28a2.29,2.29,0,0,0,.25,1.1,2.26,2.26,0,0,0,.66.76,2.77,2.77,0,0,0,.95.44,4.34,4.34,0,0,0,1.11.14,5,5,0,0,0,.92-.09,2.7,2.7,0,0,0,.83-.29,1.65,1.65,0,0,0,.6-.56,1.67,1.67,0,0,0,.23-.91,1.28,1.28,0,0,0-.28-.86,2,2,0,0,0-.74-.53,5.42,5.42,0,0,0-1-.34l-1.19-.26Q56.58,19,56,18.78a4.3,4.3,0,0,1-1-.47,2.11,2.11,0,0,1-1-1.92,2.7,2.7,0,0,1,.31-1.33,2.74,2.74,0,0,1,.83-.93,3.74,3.74,0,0,1,1.18-.54,5.22,5.22,0,0,1,1.36-.18,5.46,5.46,0,0,1,1.45.18,3.31,3.31,0,0,1,1.18.58,2.83,2.83,0,0,1,.8,1,3.58,3.58,0,0,1,.32,1.45H60.08A2.12,2.12,0,0,0,59.29,15Z"/><path class="cls-3" d="M68.45,23.37a3.35,3.35,0,0,1-2.08.63,3.8,3.8,0,0,1-1.53-.28,3,3,0,0,1-1.09-.8,3.4,3.4,0,0,1-.66-1.23,5.94,5.94,0,0,1-.25-1.55,4.42,4.42,0,0,1,.26-1.54,3.67,3.67,0,0,1,.72-1.21,3.27,3.27,0,0,1,1.1-.8,3.35,3.35,0,0,1,1.39-.29,3,3,0,0,1,1.63.41,3.22,3.22,0,0,1,1,1,4.07,4.07,0,0,1,.54,1.37,5.89,5.89,0,0,1,.12,1.41H64.11a2.92,2.92,0,0,0,.11.92,2,2,0,0,0,1.14,1.3,2.5,2.5,0,0,0,1,.2,2.09,2.09,0,0,0,1.26-.36,1.72,1.72,0,0,0,.65-1.08h1.2A2.94,2.94,0,0,1,68.45,23.37Zm-.29-4.73a2.06,2.06,0,0,0-.44-.66,2.1,2.1,0,0,0-.66-.44,2.08,2.08,0,0,0-.83-.16,2.11,2.11,0,0,0-.85.16,2,2,0,0,0-.65.45,2.14,2.14,0,0,0-.43.66,2.55,2.55,0,0,0-.19.81h4.23A2.5,2.5,0,0,0,68.16,18.63Z"/><path class="cls-3" d="M72,16.47v1.17h0a2.55,2.55,0,0,1,2.39-1.34,3.21,3.21,0,0,1,1.21.2,2,2,0,0,1,.78.56,2.06,2.06,0,0,1,.42.85A4.54,4.54,0,0,1,77,19v4.85H75.77v-5a1.46,1.46,0,0,0-.4-1.08,1.48,1.48,0,0,0-1.1-.4,2.47,2.47,0,0,0-1,.17,1.8,1.8,0,0,0-.68.48,2.07,2.07,0,0,0-.41.73,3,3,0,0,0-.14.92v4.16H70.88V16.47Z"/><path class="cls-3" d="M84.18,23.84v-1h0a1.78,1.78,0,0,1-.94.88A3.6,3.6,0,0,1,81.8,24a3.32,3.32,0,0,1-1.49-.31,3.05,3.05,0,0,1-1.05-.84,3.65,3.65,0,0,1-.63-1.23,5,5,0,0,1-.21-1.48,5.2,5.2,0,0,1,.21-1.48,3.47,3.47,0,0,1,.63-1.22,3,3,0,0,1,1.06-.83,3.35,3.35,0,0,1,1.47-.31,3.58,3.58,0,0,1,.61.06,3.13,3.13,0,0,1,.66.19,2.81,2.81,0,0,1,.62.36,1.94,1.94,0,0,1,.49.55h0V13.66h1.21V23.84Zm-4.35-2.62a2.73,2.73,0,0,0,.41.88,2,2,0,0,0,.71.61,2.15,2.15,0,0,0,1,.23,2,2,0,0,0,1.74-.88,2.64,2.64,0,0,0,.39-.89,4.29,4.29,0,0,0,0-2.06,2.57,2.57,0,0,0-.41-.89A2.09,2.09,0,0,0,83,17.6a2.25,2.25,0,0,0-1.07-.24,2.08,2.08,0,0,0-1,.24,1.94,1.94,0,0,0-.68.64,2.79,2.79,0,0,0-.37.91,4.81,4.81,0,0,0-.11,1.05A3.75,3.75,0,0,0,79.83,21.22Z"/><path class="cls-3" d="M94.37,16.47v1.07H92.9v4.57a1.34,1.34,0,0,0,0,.34.35.35,0,0,0,.14.2.59.59,0,0,0,.28.09l.46,0h.56v1.07h-.93a4.33,4.33,0,0,1-.8-.06,1.18,1.18,0,0,1-.54-.24,1,1,0,0,1-.31-.48,2.81,2.81,0,0,1-.1-.83V17.54H90.44V16.47h1.25V14.26H92.9v2.21Z"/><path class="cls-3" d="M95.54,18.64a3.44,3.44,0,0,1,.68-1.23,3.21,3.21,0,0,1,1.13-.82,4.13,4.13,0,0,1,3.09,0,3.25,3.25,0,0,1,1.12.82,3.44,3.44,0,0,1,.68,1.23,4.91,4.91,0,0,1,.23,1.52,4.84,4.84,0,0,1-.23,1.51,3.44,3.44,0,0,1-.68,1.22,3.17,3.17,0,0,1-1.12.81,4.23,4.23,0,0,1-3.09,0,3.14,3.14,0,0,1-1.13-.81,3.45,3.45,0,0,1-.68-1.22,4.84,4.84,0,0,1-.23-1.51A4.91,4.91,0,0,1,95.54,18.64Zm1.23,2.71a2.49,2.49,0,0,0,.49.87,2.13,2.13,0,0,0,.73.53,2.23,2.23,0,0,0,1.78,0,2.14,2.14,0,0,0,.73-.53,2.47,2.47,0,0,0,.49-.87A4.06,4.06,0,0,0,101,19a2.55,2.55,0,0,0-.49-.88,2.1,2.1,0,0,0-.73-.54,2.23,2.23,0,0,0-1.78,0,2.09,2.09,0,0,0-.73.54,2.57,2.57,0,0,0-.49.88,4.06,4.06,0,0,0,0,2.38Z"/><path class="cls-3" d="M109.93,13.66l3.21,8.55,3.22-8.55h1.85V23.84h-1.28V15.37h0l-3.18,8.47h-1.15l-3.18-8.47h0v8.47h-1.28V13.66Z"/><path class="cls-3" d="M125.48,23.37a3.35,3.35,0,0,1-2.08.63,3.8,3.8,0,0,1-1.53-.28,3,3,0,0,1-1.09-.8,3.4,3.4,0,0,1-.66-1.23,5.94,5.94,0,0,1-.25-1.55,4.42,4.42,0,0,1,.26-1.54,3.67,3.67,0,0,1,.72-1.21,3.27,3.27,0,0,1,1.1-.8,3.35,3.35,0,0,1,1.39-.29,3,3,0,0,1,1.63.41,3.22,3.22,0,0,1,1,1,4.07,4.07,0,0,1,.54,1.37,5.89,5.89,0,0,1,.12,1.41h-5.52a2.92,2.92,0,0,0,.11.92,2,2,0,0,0,1.14,1.3,2.5,2.5,0,0,0,1,.2,2.09,2.09,0,0,0,1.26-.36,1.72,1.72,0,0,0,.65-1.08h1.2A2.94,2.94,0,0,1,125.48,23.37Zm-.29-4.73a2.06,2.06,0,0,0-.44-.66,2.1,2.1,0,0,0-.66-.44,2.08,2.08,0,0,0-.83-.16,2.11,2.11,0,0,0-.85.16,2,2,0,0,0-.65.45,2.14,2.14,0,0,0-.43.66,2.55,2.55,0,0,0-.19.81h4.23A2.5,2.5,0,0,0,125.19,18.63Z"/><path class="cls-3" d="M128.85,22.19a1.28,1.28,0,0,0,.45.44,2,2,0,0,0,.63.24,3.58,3.58,0,0,0,.72.07,4.38,4.38,0,0,0,.6,0,2.14,2.14,0,0,0,.58-.16,1.07,1.07,0,0,0,.43-.34.89.89,0,0,0,.17-.56.81.81,0,0,0-.36-.71,3,3,0,0,0-.89-.39q-.53-.15-1.16-.27a6,6,0,0,1-1.16-.34,2.41,2.41,0,0,1-.89-.62,1.61,1.61,0,0,1-.36-1.11,1.77,1.77,0,0,1,.25-1,2,2,0,0,1,.64-.65,3,3,0,0,1,.88-.37,4.08,4.08,0,0,1,1-.12,5.81,5.81,0,0,1,1.15.11,2.67,2.67,0,0,1,.93.37,1.92,1.92,0,0,1,.65.71,2.72,2.72,0,0,1,.29,1.12h-1.21a1.16,1.16,0,0,0-.58-1,1.83,1.83,0,0,0-.53-.21,2.74,2.74,0,0,0-.59-.06,3.6,3.6,0,0,0-.55,0,1.84,1.84,0,0,0-.51.15,1,1,0,0,0-.37.29.72.72,0,0,0-.14.46.68.68,0,0,0,.22.52,1.77,1.77,0,0,0,.56.34,5,5,0,0,0,.77.23l.86.19q.46.1.89.24a2.92,2.92,0,0,1,.77.38,1.84,1.84,0,0,1,.54.59,1.74,1.74,0,0,1,.21.88,2.06,2.06,0,0,1-.28,1.11,2.18,2.18,0,0,1-.73.71,3,3,0,0,1-1,.38,5.94,5.94,0,0,1-1.12.11,5.18,5.18,0,0,1-1.17-.13,2.86,2.86,0,0,1-1-.42,2.13,2.13,0,0,1-.68-.77,2.65,2.65,0,0,1-.29-1.16h1.21A1.37,1.37,0,0,0,128.85,22.19Z"/><path class="cls-3" d="M136,22.19a1.28,1.28,0,0,0,.45.44,2,2,0,0,0,.63.24,3.58,3.58,0,0,0,.72.07,4.38,4.38,0,0,0,.6,0,2.14,2.14,0,0,0,.58-.16,1.07,1.07,0,0,0,.43-.34.89.89,0,0,0,.17-.56.81.81,0,0,0-.36-.71,3,3,0,0,0-.89-.39q-.53-.15-1.16-.27a6,6,0,0,1-1.16-.34,2.41,2.41,0,0,1-.89-.62,1.61,1.61,0,0,1-.36-1.11,1.77,1.77,0,0,1,.25-1,2,2,0,0,1,.64-.65,3,3,0,0,1,.88-.37,4.08,4.08,0,0,1,1-.12,5.81,5.81,0,0,1,1.15.11,2.67,2.67,0,0,1,.93.37,1.92,1.92,0,0,1,.65.71,2.72,2.72,0,0,1,.29,1.12h-1.21a1.16,1.16,0,0,0-.58-1,1.83,1.83,0,0,0-.53-.21,2.74,2.74,0,0,0-.59-.06,3.6,3.6,0,0,0-.55,0,1.84,1.84,0,0,0-.51.15,1,1,0,0,0-.37.29.72.72,0,0,0-.14.46.68.68,0,0,0,.22.52,1.77,1.77,0,0,0,.56.34,5,5,0,0,0,.77.23l.86.19q.46.1.89.24a2.92,2.92,0,0,1,.77.38,1.84,1.84,0,0,1,.54.59,1.74,1.74,0,0,1,.21.88,2.06,2.06,0,0,1-.28,1.11,2.18,2.18,0,0,1-.73.71,3,3,0,0,1-1,.38,5.94,5.94,0,0,1-1.12.11,5.18,5.18,0,0,1-1.17-.13,2.86,2.86,0,0,1-1-.42,2.13,2.13,0,0,1-.68-.77,2.65,2.65,0,0,1-.29-1.16h1.21A1.37,1.37,0,0,0,136,22.19Z"/><path class="cls-3" d="M147.39,23.37a3.35,3.35,0,0,1-2.08.63,3.8,3.8,0,0,1-1.53-.28,3,3,0,0,1-1.09-.8,3.4,3.4,0,0,1-.66-1.23,5.94,5.94,0,0,1-.25-1.55,4.42,4.42,0,0,1,.26-1.54,3.67,3.67,0,0,1,.72-1.21,3.27,3.27,0,0,1,1.1-.8,3.35,3.35,0,0,1,1.39-.29,3,3,0,0,1,1.63.41,3.22,3.22,0,0,1,1,1,4.07,4.07,0,0,1,.54,1.37,5.89,5.89,0,0,1,.12,1.41h-5.52a2.92,2.92,0,0,0,.11.92,2,2,0,0,0,1.14,1.3,2.5,2.5,0,0,0,1,.2,2.09,2.09,0,0,0,1.26-.36,1.72,1.72,0,0,0,.65-1.08h1.2A2.94,2.94,0,0,1,147.39,23.37Zm-.29-4.73a2.06,2.06,0,0,0-.44-.66,2.1,2.1,0,0,0-.66-.44,2.08,2.08,0,0,0-.83-.16,2.11,2.11,0,0,0-.85.16,2,2,0,0,0-.65.45,2.14,2.14,0,0,0-.43.66,2.55,2.55,0,0,0-.19.81h4.23A2.5,2.5,0,0,0,147.1,18.63Z"/><path class="cls-3" d="M151,16.47v1.17h0a2.55,2.55,0,0,1,2.39-1.34,3.21,3.21,0,0,1,1.21.2,2,2,0,0,1,.78.56,2.06,2.06,0,0,1,.42.85,4.54,4.54,0,0,1,.12,1.09v4.85h-1.21v-5a1.46,1.46,0,0,0-.4-1.08,1.48,1.48,0,0,0-1.1-.4,2.47,2.47,0,0,0-1,.17,1.8,1.8,0,0,0-.68.48,2.07,2.07,0,0,0-.41.73,3,3,0,0,0-.14.92v4.16h-1.21V16.47Z"/><path class="cls-3" d="M163.28,25.92a3.37,3.37,0,0,1-2.59.9,5,5,0,0,1-1-.11,3.23,3.23,0,0,1-1-.37,2.26,2.26,0,0,1-.72-.67,1.9,1.9,0,0,1-.31-1h1.21a.89.89,0,0,0,.21.56,1.51,1.51,0,0,0,.47.37,2.28,2.28,0,0,0,.61.21,3.34,3.34,0,0,0,.63.06,2.26,2.26,0,0,0,1-.21,1.9,1.9,0,0,0,.68-.57,2.34,2.34,0,0,0,.39-.88,4.86,4.86,0,0,0,.12-1.13v-.48h0a2,2,0,0,1-.95,1,2.93,2.93,0,0,1-1.35.32,3.25,3.25,0,0,1-1.44-.3,3,3,0,0,1-1-.81,3.39,3.39,0,0,1-.62-1.18,4.86,4.86,0,0,1-.21-1.43,5.63,5.63,0,0,1,.17-1.35,3.68,3.68,0,0,1,.57-1.25,3.13,3.13,0,0,1,1.06-.93,3.27,3.27,0,0,1,1.61-.36,2.72,2.72,0,0,1,1.28.31,2.16,2.16,0,0,1,.91.92h0V16.47h1.14v6.74A3.88,3.88,0,0,1,163.28,25.92Zm-1.55-3.31a2,2,0,0,0,.68-.66,3,3,0,0,0,.38-.92,4.43,4.43,0,0,0,.12-1,4,4,0,0,0-.11-1,2.66,2.66,0,0,0-.36-.85,1.89,1.89,0,0,0-.65-.61,1.93,1.93,0,0,0-1-.23,2.1,2.1,0,0,0-1,.22,1.93,1.93,0,0,0-.68.59,2.49,2.49,0,0,0-.39.86,4.15,4.15,0,0,0-.12,1,5.11,5.11,0,0,0,.1,1,2.85,2.85,0,0,0,.34.9,1.92,1.92,0,0,0,.64.66,1.84,1.84,0,0,0,1,.25A2,2,0,0,0,161.73,22.6Z"/><path class="cls-3" d="M171.15,23.37a3.35,3.35,0,0,1-2.08.63,3.8,3.8,0,0,1-1.53-.28,3,3,0,0,1-1.09-.8,3.4,3.4,0,0,1-.66-1.23,5.94,5.94,0,0,1-.25-1.55,4.42,4.42,0,0,1,.26-1.54,3.67,3.67,0,0,1,.72-1.21,3.27,3.27,0,0,1,1.1-.8A3.35,3.35,0,0,1,169,16.3a3,3,0,0,1,1.63.41,3.22,3.22,0,0,1,1,1,4.07,4.07,0,0,1,.54,1.37,5.89,5.89,0,0,1,.12,1.41h-5.52a2.92,2.92,0,0,0,.11.92,2,2,0,0,0,1.14,1.3,2.5,2.5,0,0,0,1,.2,2.09,2.09,0,0,0,1.26-.36A1.72,1.72,0,0,0,171,21.5h1.2A2.94,2.94,0,0,1,171.15,23.37Zm-.29-4.73a2.06,2.06,0,0,0-.44-.66,2.1,2.1,0,0,0-.66-.44,2.08,2.08,0,0,0-.83-.16,2.11,2.11,0,0,0-.85.16,2,2,0,0,0-.65.45,2.14,2.14,0,0,0-.43.66,2.55,2.55,0,0,0-.19.81H171A2.5,2.5,0,0,0,170.85,18.63Z"/><path class="cls-3" d="M174.68,16.47V18h0a3.28,3.28,0,0,1,1.08-1.33,2.73,2.73,0,0,1,1.62-.4v1.28a3.43,3.43,0,0,0-1.24.2,2,2,0,0,0-.83.58,2.42,2.42,0,0,0-.46.93,5,5,0,0,0-.14,1.26v3.28h-1.21V16.47Z"/></g></g></svg>