<svg xmlns="http://www.w3.org/2000/svg" viewBox="0 0 121.02 29"><title>logo</title><g id="Layer_2" data-name="Layer 2"><g id="Layer_1-2" data-name="Layer 1"><path d="M104.1,0a11.4,11.4,0,1,0,11.4,11.4A11.39,11.39,0,0,0,104.1,0ZM113,5a17.39,17.39,0,0,1-1.8,1.1A7.71,7.71,0,0,0,109.8,4a6.42,6.42,0,0,0,1.3-1A8.9,8.9,0,0,1,113,5Zm-4.8-3.8a13.5,13.5,0,0,1,2.6,1.5,14.63,14.63,0,0,1-1.3.9,15.37,15.37,0,0,0-1.9-1.7A1.34,1.34,0,0,0,108.2,1.2Zm.9,2.6a15.39,15.39,0,0,1-1.9.8,17.38,17.38,0,0,0-1-1.9,8.8,8.8,0,0,0,1-.6A10.82,10.82,0,0,1,109.1,3.8Zm-1.3-2.7c-.2.2-.3.4-.5.5A11.78,11.78,0,0,0,105.4.5,10.55,10.55,0,0,1,107.8,1.1Zm-.9.8a4.05,4.05,0,0,1-.9.5A14.31,14.31,0,0,0,104.9.9,7.5,7.5,0,0,1,106.9,1.9Zm-2.5-1c.4.5.8,1,1.2,1.6a5,5,0,0,1-1.2.2Zm0,2.3a3.19,3.19,0,0,0,1.4-.3,15.11,15.11,0,0,1,.9,1.8,9.86,9.86,0,0,1-2.4.3A10.28,10.28,0,0,0,104.4,3.2ZM103.9.9V2.7a5,5,0,0,1-1.2-.2C103.1,2,103.5,1.5,103.9.9Zm-1.6,1.5a4.05,4.05,0,0,1-.9-.5,7.5,7.5,0,0,1,2-1A5.83,5.83,0,0,0,102.3,2.4Zm.6-1.9A7.24,7.24,0,0,0,101,1.6c-.2-.2-.4-.3-.5-.5A10.55,10.55,0,0,1,102.9.5Zm7.9,19.6a2.53,2.53,0,0,1-1.5-2.4c.1-.4.4-.2.6-.2a4.4,4.4,0,0,0,3.3-1.6,5.12,5.12,0,0,0-.3-7c-2.4-2.3-5-1.9-6.6.2a2.74,2.74,0,0,1-1.9.7c-1.1,0-.4.8-.4,1a.32.32,0,0,1-.3.3c-.4-.1-.2.4-.2.6s-.1.2-.2.2c-.4,0-.3.4-.3.5a.4.4,0,0,1-.2.4,1.14,1.14,0,0,0-.3.7c0,.5.4.8,1.2,1.4a1.86,1.86,0,0,1,.8,1.5,3.4,3.4,0,0,0,.2,1.4c.2.5.2,1.4-.8,1.4-1.3,0-3.5,1.1-3.7,1.1a4.83,4.83,0,0,1-2.4.2,10.63,10.63,0,0,1-1.1-.9,1.79,1.79,0,0,1,.4-1.4,1.9,1.9,0,0,0,1.4.4c.3,0,2.1-.3,2.3-.3a.45.45,0,0,1,.5,0c.7.2,1.5.3,1.9-.9s-.5-.9-.6-.8-.3,0-.2-.1c.2-.3-.1-.3-.2-.3a1.91,1.91,0,0,0-1,.5.49.49,0,0,1-.3.1c-.5-.2-1.8.1-2.3-.6a21,21,0,0,0-.6-3.8.51.51,0,0,1,.1-.5c.4-.5,1.3,0,1.8,0s.7-.3.9-.5.3-.1.4-.1,0-.2,0-.3.1,0,.2-.1,0-.3,0-.4c.2-.2.6,0,.3-.7a1.34,1.34,0,0,1,.2-.9,2.52,2.52,0,0,0-.6-3.8c-2-1.6-4-1.5-5.3-.1s-.6,3.5-.5,4a1.21,1.21,0,0,1-.7,1.2A11.13,11.13,0,0,0,93,11.4a10.86,10.86,0,0,1,6.9-9.9l.6.6A15,15,0,0,0,99,3.3a.77.77,0,0,1,.3.1,1,1,0,0,1,.3.1l1.3-1c.3.2.7.4,1,.6-.2.3-.7,1.3-.7,1.3a.35.35,0,0,0,.2.1.31.31,0,0,0,.2.1,13.24,13.24,0,0,1,.8-1.4,7,7,0,0,0,1.4.3V5.4a4.48,4.48,0,0,1-1.2-.1h-.2l.1.1c.1.1.1.2.2.3h1.1V9.1h.5V8.3c.7,0,1.3-.1,2-.1h0l.6-.5h-.3c-.7.1-1.4.1-2,.2h-.3V5.7a7.83,7.83,0,0,0,2.6-.4c.2.6.7,1.9.7,1.9l.4-.1a12,12,0,0,0-.7-1.9,9.49,9.49,0,0,0,2.1-.9,11,11,0,0,1,1.4,2.1,4.91,4.91,0,0,1-1,.4c.5.1.9.2.9.2a1,1,0,0,1,.3-.1,1,1,0,0,0,.1.3l.6.3-.1-.2a3.29,3.29,0,0,0-.3-.6,11.78,11.78,0,0,0,1.9-1.1,10.58,10.58,0,0,1,1.8,6A10.42,10.42,0,0,1,110.8,20.1Z"/><path d="M91.7,3l-.2.2c-.7.6-2.2,2.2-2,3.9v.1l.1.3.2-.2a7.51,7.51,0,0,0,1.9-4l.1-.5Z"/><path d="M88.6,6l-.1.2a8.51,8.51,0,0,0-.4,1.7,5.27,5.27,0,0,0,.9,3.9l.1.1.1.1.1-.7a13,13,0,0,0-.5-5.2l-.2-.4Z"/><path d="M87.4,10.6v.2c-.1,1.2,0,4,2.3,5.5l.3.2v-.3a14.76,14.76,0,0,0-2.2-5.5l-.3-.3Z"/><path d="M87.8,15.7v.2A7.35,7.35,0,0,0,92.1,21l.3.1-.1-.3a15,15,0,0,0-4.2-5l-.3-.2Z"/><path d="M92.7,5.5l-.2.1c-1.8,1.1-2.6,2.4-2.6,4V10l.3-.2a9.36,9.36,0,0,0,2.5-4l.1-.4Z"/><path d="M91.6,9l-.1.1a5.34,5.34,0,0,0-1.8,4,4.4,4.4,0,0,0,.2,1l.1.3.2-.3a11.87,11.87,0,0,0,1.6-4.8V8.9Z"/><path d="M91.7,12.4l-.1.1a6.18,6.18,0,0,0-1.1,3.3,4.39,4.39,0,0,0,.7,2.2l.2.2.1-.2a11.07,11.07,0,0,0,.5-4.1,4.44,4.44,0,0,0-.2-1.3l-.1-.3Z"/><path d="M92.5,16v.2a7.61,7.61,0,0,0-.3,2.1,4,4,0,0,0,2,3.5l.2.1v-.5a14.33,14.33,0,0,0-1.7-5.3l-.2-.3Z"/><path d="M90,20.8l.1.2c1,1.6,2.6,3.7,5.6,3.2H96l-.1-.2a16,16,0,0,0-5.6-3.1l-.4-.1Zm.3,0Z"/><path d="M94.5,24.9h0L94,25l.5.2a10.08,10.08,0,0,0,5.8.6,2.73,2.73,0,0,0,1.2-.9c2.5.3,4.8,2.3,6.2,4l.1.1h.1a.85.85,0,0,0,.5-.3l.1-.2-.1-.1a11.7,11.7,0,0,0-3.7-3C102.7,24.4,99.1,23.7,94.5,24.9Z"/><path d="M94.6,19.8V20c.3,1.8,1,4.2,4.1,4h.2v-.2c-.2-.8-3-3.2-4-3.9l-.3-.2Z"/><path d="M116.5,2.9l.1.5a7.51,7.51,0,0,0,1.9,4l.2.2.1-.3V7.2c.2-1.7-1.3-3.3-2-3.9l-.2-.2Z"/><path d="M119.7,5.8l-.2.4a13,13,0,0,0-.5,5.2l.1.7.1-.1.1-.1a5.27,5.27,0,0,0,.9-3.9,8.51,8.51,0,0,0-.4-1.7l-.1-.2Z"/><path d="M120.9,10.4l-.3.3a14.76,14.76,0,0,0-2.2,5.5v.3l.3-.2c2.3-1.5,2.4-4.4,2.3-5.5v-.2Z"/><path d="M120.5,15.5l-.3.2a13.88,13.88,0,0,0-4.2,5l-.1.3.3-.1c2.4-.8,3.9-3.4,4.3-5.1v-.3Z"/><path d="M115.6,5.3l.1.4a10.2,10.2,0,0,0,2.4,4l.3.2V9.5c.1-1.6-.7-3-2.5-4.1l-.2-.1Z"/><path d="M116.6,8.9v.4a11.87,11.87,0,0,0,1.6,4.8l.2.3.1-.3a3.55,3.55,0,0,0,.2-1c.1-1.9-1.4-3.5-1.8-4l-.1-.1Z"/><path d="M116.5,12.3l-.1.3c-.1.3-.1.8-.2,1.3a13.25,13.25,0,0,0,.5,4.1l.1.2.2-.2a3.6,3.6,0,0,0,.7-2.2,6.47,6.47,0,0,0-1.1-3.3l-.1-.1Z"/><path d="M115.7,15.9l-.2.3a15,15,0,0,0-1.7,5.3V22l.2-.1a4.16,4.16,0,0,0,2-3.5,7.61,7.61,0,0,0-.3-2.1v-.4Z"/><path d="M118.4,20.7l-.4.1a16,16,0,0,0-5.6,3.1l-.1.2h.3c3.1.5,4.7-1.5,5.6-3.2l.1-.2Zm-.3.1Z"/><path d="M103.7,25.4a11.7,11.7,0,0,0-3.7,3l-.1.1.1.1a.85.85,0,0,0,.5.3h.1l.1-.1c1.4-1.7,3.7-3.7,6.2-4a3.45,3.45,0,0,0,1.2.9c1.4.5,3.8.2,5.8-.6l.5-.2-.5-.1h0C109.2,23.7,105.7,24.4,103.7,25.4Z"/><path d="M113.7,19.6l-.3.2c-1,.7-3.8,3.1-4,3.9v.2h.2c3.1.3,3.8-2.1,4.1-4v-.3Z"/><path d="M35.8,1.1h3.9V4.6H35.8Zm.3,24.6V8.6h3.2V25.7Z"/><path d="M11.6,8.6h3.2V25.7H11.6V23.2h-.1a6.6,6.6,0,0,1-5.9,3C2,26.2,0,23.5,0,20V8.6H3.2V18.7c0,3,.7,5.2,3.8,5.2a4.08,4.08,0,0,0,3.8-2.5,12.48,12.48,0,0,0,.6-4V8.6Z"/><path d="M21.3,11.2h0a6.2,6.2,0,0,1,5.3-3c1.2,0,6.5.3,6.5,5.8V25.8H29.9V15c0-2.8-1.2-4.4-3.9-4.4a4.26,4.26,0,0,0-3.1,1.3c-.5.5-1.4,1.2-1.4,4.6v9.3H18.3V8.6h3.2v2.6Z"/><path d="M52.9,14.1c-.2-2.1-1.2-3.6-3.5-3.6-3.1,0-4.3,2.7-4.3,6.7s1.2,6.7,4.3,6.7c2.1,0,3.5-1.4,3.6-3.8h3.2a6.52,6.52,0,0,1-6.9,6.2c-5.5,0-7.6-3.9-7.6-8.9s2.5-9.2,7.9-9.2a6.13,6.13,0,0,1,6.5,6H52.9Z"/><path d="M61.1,17.8c-.2,3,1,6.1,4.3,6.1,2.5,0,3.8-1,4.1-3.5h3.4c-.5,3.9-3.5,5.8-7.6,5.8-5.5,0-7.6-3.9-7.6-8.9s2.5-9.2,7.9-9.2c5.1.1,7.5,3.3,7.5,8v1.6h-12Zm8.6-2.2c.1-2.8-1.2-5.1-4.3-5.1-2.7,0-4.3,2.3-4.3,5.1Z"/><path d="M76.7,25.7V10.9H73.8V8.7h2.9V5C76.8,1.3,79.6.3,82,.3a18.1,18.1,0,0,1,2.3.3V3.3c-.5,0-1.1-.1-1.6-.1-1.8,0-2.9.5-2.8,2.3V8.6h3.9v2.2H79.9V25.6H76.7Z"/></g></g></svg>